<?xml version="1.0" encoding="utf-8"?>
<svg version="1.0" width="500.000000pt" height="500.000000pt" viewBox="0 0 500.000000 500.000000" preserveAspectRatio="xMidYMid meet" xmlns="http://www.w3.org/2000/svg" xmlns:bx="https://boxy-svg.com">
  <path style="stroke: rgb(0, 0, 0); fill: rgb(255, 255, 255);" d="M 235.293 26.763 C 212.277 41.177 194.33 61.025 170.871 74.65 C 164.694 78.238 111.946 107.574 96.068 117.621 C 75.42 130.685 52.181 150.207 39.702 171.543 C 37.083 176.022 37.159 236.021 37.552 264.02 C 37.684 273.485 35.979 402.759 37.905 414.99 C 38.736 420.266 37.377 450.786 50.778 452.907 C 81.048 457.698 73.969 468.693 104.711 468.188 C 127.256 467.818 227.217 468.12 249.731 468.814 C 291.251 470.095 330.48 466.648 372.061 464.885 C 390.812 464.089 419.191 470.392 436.351 461.464 C 448.166 455.317 462.704 437.055 466.067 423.458 C 468.943 411.832 468.628 384.694 468.471 372.877 C 468.449 371.287 466.206 334.892 466.41 324.534 C 467.161 286.465 465.845 248.249 465.845 210.119 C 465.845 195.916 465.702 177.412 457.388 165.38 C 452.813 158.759 445.695 154.234 440.483 148.096 C 431.243 137.215 403.895 121.93 402.488 120.357 C 398.576 115.982 379.476 103.636 374.717 100.114 C 357.982 87.729 280.665 34.498 263.01 23.911"/>
  <g transform="translate(0.000000,500.000000) scale(0.100000,-0.100000)" fill="#000000" stroke="none">
    <path d="M2355 4811 c-33 -10 -80 -28 -104 -40 -24 -12 -319 -205 -655 -428 -336 -223 -717 -476 -846 -561 -263 -174 -334 -237 -392 -347 -72 -138 -68 -55 -68 -1422 0 -829 3 -1249 11 -1289 14 -82 78 -208 138 -275 60 -67 153 -129 241 -161 l65 -23 1748 -3 c1946 -3 1801 -7 1941 66 126 66 235 198 279 337 l22 70 0 1265 0 1265 -24 73 c-28 85 -82 174 -145 236 -40 40 -1647 1117 -1774 1189 -116 65 -307 86 -437 48z m310 -244 c28 -14 430 -279 895 -589 828 -551 846 -564 886 -624 26 -39 45 -82 53 -120 18 -86 11 -2453 -7 -2506 -33 -97 -136 -194 -237 -223 -44 -13 -278 -15 -1761 -13 l-1709 3 -67 33 c-77 38 -130 92 -167 171 l-26 56 0 1245 0 1245 33 68 c22 44 49 81 80 107 80 67 1730 1158 1770 1169 20 5 75 9 122 7 69 -2 94 -7 135 -29z"/>
  </g>
  <path d="M 254.702 91.608 L 307.075 197.726 L 424.183 214.743 L 339.443 297.345 L 359.447 413.98 L 254.702 358.912 L 149.957 413.98 L 169.961 297.345 L 85.221 214.743 L 202.329 197.726 Z" style="stroke: rgb(0, 0, 0); fill: rgb(255, 186, 85); stroke-width: 0px;" bx:shape="star 254.702 269.811 178.203 178.203 0.5 5 1@af51be3e"/>
</svg>