<?xml version="1.0" standalone="no"?>
<!DOCTYPE svg PUBLIC "-//W3C//DTD SVG 20010904//EN"
 "http://www.w3.org/TR/2001/REC-SVG-20010904/DTD/svg10.dtd">
<svg version="1.0" xmlns="http://www.w3.org/2000/svg"
 width="500.000000pt" height="500.000000pt" viewBox="0 0 500.000000 500.000000"
 preserveAspectRatio="xMidYMid meet">

<g transform="translate(0.000000,500.000000) scale(0.100000,-0.100000)"
fill="#000000" stroke="none">
<path d="M2355 4811 c-33 -10 -80 -28 -104 -40 -24 -12 -319 -205 -655 -428
-336 -223 -717 -476 -846 -561 -263 -174 -334 -237 -392 -347 -72 -138 -68
-55 -68 -1422 0 -829 3 -1249 11 -1289 14 -82 78 -208 138 -275 60 -67 153
-129 241 -161 l65 -23 1748 -3 c1946 -3 1801 -7 1941 66 126 66 235 198 279
337 l22 70 0 1265 0 1265 -24 73 c-28 85 -82 174 -145 236 -40 40 -1647 1117
-1774 1189 -116 65 -307 86 -437 48z m310 -244 c28 -14 430 -279 895 -589 828
-551 846 -564 886 -624 26 -39 45 -82 53 -120 18 -86 11 -2453 -7 -2506 -33
-97 -136 -194 -237 -223 -44 -13 -278 -15 -1761 -13 l-1709 3 -67 33 c-77 38
-130 92 -167 171 l-26 56 0 1245 0 1245 33 68 c22 44 49 81 80 107 80 67 1730
1158 1770 1169 20 5 75 9 122 7 69 -2 94 -7 135 -29z"/>
</g>
</svg>
